<mxfile host="app.diagrams.net" agent="Mozilla/5.0 (Macintosh; Intel Mac OS X 10_15_7) AppleWebKit/605.1.15 (KHTML, like Gecko) Version/17.4 Safari/605.1.15" version="25.0.3">
  <diagram name="第 1 页" id="IxdICU4NHLxpQo1UPoSn">
    <mxGraphModel dx="1434" dy="827" grid="0" gridSize="10" guides="1" tooltips="1" connect="1" arrows="1" fold="1" page="1" pageScale="1" pageWidth="827" pageHeight="1169" math="0" shadow="0">
      <root>
        <mxCell id="0" />
        <mxCell id="1" parent="0" />
        <mxCell id="JUDDiuMZoLjBzeaJ1tXE-9" style="edgeStyle=orthogonalEdgeStyle;rounded=0;orthogonalLoop=1;jettySize=auto;html=1;exitX=0.5;exitY=1;exitDx=0;exitDy=0;entryX=0.5;entryY=0;entryDx=0;entryDy=0;" edge="1" parent="1" source="JUDDiuMZoLjBzeaJ1tXE-1" target="JUDDiuMZoLjBzeaJ1tXE-2">
          <mxGeometry relative="1" as="geometry" />
        </mxCell>
        <mxCell id="JUDDiuMZoLjBzeaJ1tXE-1" value="&lt;font style=&quot;font-size: 16px;&quot;&gt;开始&lt;/font&gt;" style="ellipse;whiteSpace=wrap;html=1;" vertex="1" parent="1">
          <mxGeometry x="330" y="140" width="80" height="40" as="geometry" />
        </mxCell>
        <mxCell id="JUDDiuMZoLjBzeaJ1tXE-23" style="edgeStyle=orthogonalEdgeStyle;rounded=0;orthogonalLoop=1;jettySize=auto;html=1;exitX=0.5;exitY=1;exitDx=0;exitDy=0;entryX=0.5;entryY=0;entryDx=0;entryDy=0;" edge="1" parent="1" source="JUDDiuMZoLjBzeaJ1tXE-2" target="JUDDiuMZoLjBzeaJ1tXE-16">
          <mxGeometry relative="1" as="geometry" />
        </mxCell>
        <mxCell id="JUDDiuMZoLjBzeaJ1tXE-2" value="&lt;span style=&quot;text-align: start; font-size: medium;&quot;&gt;创建窗口&lt;/span&gt;" style="rounded=1;whiteSpace=wrap;html=1;" vertex="1" parent="1">
          <mxGeometry x="315" y="200" width="110" height="40" as="geometry" />
        </mxCell>
        <mxCell id="JUDDiuMZoLjBzeaJ1tXE-8" value="&lt;font size=&quot;3&quot;&gt;结束&lt;/font&gt;" style="ellipse;whiteSpace=wrap;html=1;" vertex="1" parent="1">
          <mxGeometry x="330" y="584.5" width="80" height="40" as="geometry" />
        </mxCell>
        <mxCell id="JUDDiuMZoLjBzeaJ1tXE-24" style="edgeStyle=orthogonalEdgeStyle;rounded=0;orthogonalLoop=1;jettySize=auto;html=1;exitX=0.5;exitY=1;exitDx=0;exitDy=0;entryX=0.5;entryY=0;entryDx=0;entryDy=0;" edge="1" parent="1" source="JUDDiuMZoLjBzeaJ1tXE-16" target="JUDDiuMZoLjBzeaJ1tXE-17">
          <mxGeometry relative="1" as="geometry" />
        </mxCell>
        <mxCell id="JUDDiuMZoLjBzeaJ1tXE-16" value="&lt;font style=&quot;font-size: 16px;&quot;&gt;输入相关数据&lt;/font&gt;" style="shape=parallelogram;perimeter=parallelogramPerimeter;whiteSpace=wrap;html=1;fixedSize=1;" vertex="1" parent="1">
          <mxGeometry x="302.5" y="260" width="135" height="40" as="geometry" />
        </mxCell>
        <mxCell id="JUDDiuMZoLjBzeaJ1tXE-25" style="edgeStyle=orthogonalEdgeStyle;rounded=0;orthogonalLoop=1;jettySize=auto;html=1;exitX=0.5;exitY=1;exitDx=0;exitDy=0;entryX=0.5;entryY=0;entryDx=0;entryDy=0;" edge="1" parent="1" source="JUDDiuMZoLjBzeaJ1tXE-17" target="JUDDiuMZoLjBzeaJ1tXE-19">
          <mxGeometry relative="1" as="geometry" />
        </mxCell>
        <mxCell id="JUDDiuMZoLjBzeaJ1tXE-17" value="&lt;span style=&quot;text-align: start; font-size: medium;&quot;&gt;获取颜色对象&amp;nbsp;&lt;/span&gt;" style="rounded=1;whiteSpace=wrap;html=1;" vertex="1" parent="1">
          <mxGeometry x="315" y="320" width="110" height="40" as="geometry" />
        </mxCell>
        <mxCell id="JUDDiuMZoLjBzeaJ1tXE-26" value="y" style="edgeStyle=orthogonalEdgeStyle;rounded=0;orthogonalLoop=1;jettySize=auto;html=1;exitX=0.5;exitY=1;exitDx=0;exitDy=0;entryX=0.5;entryY=0;entryDx=0;entryDy=0;" edge="1" parent="1" source="JUDDiuMZoLjBzeaJ1tXE-19" target="JUDDiuMZoLjBzeaJ1tXE-20">
          <mxGeometry relative="1" as="geometry" />
        </mxCell>
        <mxCell id="JUDDiuMZoLjBzeaJ1tXE-32" value="n" style="edgeStyle=orthogonalEdgeStyle;rounded=0;orthogonalLoop=1;jettySize=auto;html=1;exitX=1;exitY=0.5;exitDx=0;exitDy=0;entryX=0.5;entryY=0;entryDx=0;entryDy=0;" edge="1" parent="1" source="JUDDiuMZoLjBzeaJ1tXE-19" target="JUDDiuMZoLjBzeaJ1tXE-29">
          <mxGeometry relative="1" as="geometry" />
        </mxCell>
        <mxCell id="JUDDiuMZoLjBzeaJ1tXE-19" value="&lt;span style=&quot;text-align: start; font-size: medium;&quot;&gt;判断颜色是否合法&amp;nbsp;&lt;/span&gt;" style="rhombus;whiteSpace=wrap;html=1;" vertex="1" parent="1">
          <mxGeometry x="270" y="380" width="200" height="50" as="geometry" />
        </mxCell>
        <mxCell id="JUDDiuMZoLjBzeaJ1tXE-27" value="y" style="edgeStyle=orthogonalEdgeStyle;rounded=0;orthogonalLoop=1;jettySize=auto;html=1;exitX=0.5;exitY=1;exitDx=0;exitDy=0;entryX=0.5;entryY=0;entryDx=0;entryDy=0;" edge="1" parent="1" source="JUDDiuMZoLjBzeaJ1tXE-20" target="JUDDiuMZoLjBzeaJ1tXE-21">
          <mxGeometry relative="1" as="geometry" />
        </mxCell>
        <mxCell id="JUDDiuMZoLjBzeaJ1tXE-33" value="n" style="edgeStyle=orthogonalEdgeStyle;rounded=0;orthogonalLoop=1;jettySize=auto;html=1;exitX=1;exitY=0.5;exitDx=0;exitDy=0;entryX=0;entryY=0.5;entryDx=0;entryDy=0;" edge="1" parent="1" source="JUDDiuMZoLjBzeaJ1tXE-20" target="JUDDiuMZoLjBzeaJ1tXE-29">
          <mxGeometry relative="1" as="geometry" />
        </mxCell>
        <mxCell id="JUDDiuMZoLjBzeaJ1tXE-20" value="&lt;span style=&quot;text-align: start; font-size: medium;&quot;&gt;判断圆的有效性&lt;/span&gt;" style="rhombus;whiteSpace=wrap;html=1;" vertex="1" parent="1">
          <mxGeometry x="270" y="450" width="200" height="50" as="geometry" />
        </mxCell>
        <mxCell id="JUDDiuMZoLjBzeaJ1tXE-28" style="edgeStyle=orthogonalEdgeStyle;rounded=0;orthogonalLoop=1;jettySize=auto;html=1;exitX=0.5;exitY=1;exitDx=0;exitDy=0;entryX=0.5;entryY=0;entryDx=0;entryDy=0;" edge="1" parent="1" source="JUDDiuMZoLjBzeaJ1tXE-21" target="JUDDiuMZoLjBzeaJ1tXE-8">
          <mxGeometry relative="1" as="geometry" />
        </mxCell>
        <mxCell id="JUDDiuMZoLjBzeaJ1tXE-21" value="&lt;span style=&quot;text-align: start; font-size: medium;&quot;&gt;绘制圆形并显示面积&amp;nbsp;&lt;/span&gt;" style="shape=parallelogram;perimeter=parallelogramPerimeter;whiteSpace=wrap;html=1;fixedSize=1;" vertex="1" parent="1">
          <mxGeometry x="276.25" y="520" width="187.5" height="40" as="geometry" />
        </mxCell>
        <mxCell id="JUDDiuMZoLjBzeaJ1tXE-34" style="edgeStyle=orthogonalEdgeStyle;rounded=0;orthogonalLoop=1;jettySize=auto;html=1;exitX=0.5;exitY=1;exitDx=0;exitDy=0;entryX=1;entryY=0.5;entryDx=0;entryDy=0;" edge="1" parent="1" source="JUDDiuMZoLjBzeaJ1tXE-29" target="JUDDiuMZoLjBzeaJ1tXE-8">
          <mxGeometry relative="1" as="geometry" />
        </mxCell>
        <mxCell id="JUDDiuMZoLjBzeaJ1tXE-29" value="&lt;div style=&quot;text-align: start;&quot;&gt;&lt;font size=&quot;3&quot;&gt;抛出异常&lt;/font&gt;&lt;/div&gt;" style="rounded=1;whiteSpace=wrap;html=1;" vertex="1" parent="1">
          <mxGeometry x="520" y="455" width="90" height="40" as="geometry" />
        </mxCell>
      </root>
    </mxGraphModel>
  </diagram>
</mxfile>
